<?xml version="1.0" encoding="UTF-8"?>
<svg
          id="Layer_2"
          data-name="Layer 2"
          xmlns="http://www.w3.org/2000/svg"
          viewBox="0 0 491.49 264.5">
          <defs></defs>
          <g id="Layer_1-2" data-name="Layer 1">
            <circle fill="#0032a0" cx="318.51" cy="132.25" r="132.25" />
            <g>
              <circle fill="#ffffff" cx="310.7" cy="26.35" r="1.48" />
              <circle fill="#ffffff" cx="325.93" cy="28.33" r="1.48" />
              <circle fill="#ffffff" cx="345.89" cy="55.22" r="1.48" />
              <circle fill="#ffffff" cx="236.38" cy="193.59" r="1.48" />
              <circle fill="#ffffff" cx="240.23" cy="205.45" r="1.48" />
              <path
                fill="#ffffff"
                d="M222.96,195.37c0-.61-.5-1.11-1.11-1.11s-1.11.5-1.11,1.11.5,1.11,1.11,1.11,1.11-.5,1.11-1.11Z" />
              <path
                fill="#ffffff"
                d="M282.14,217.56c-.61,0-1.11.5-1.11,1.11s.5,1.11,1.11,1.11,1.11-.5,1.11-1.11-.5-1.11-1.11-1.11Z" />
              <path
                fill="#ffffff"
                d="M376.7,197.92c-.61,0-1.11.5-1.11,1.11s.5,1.11,1.11,1.11,1.11-.5,1.11-1.11-.5-1.11-1.11-1.11Z" />
              <circle fill="#ffffff" cx="404.18" cy="169.18" r="1.11" />
              <path
                fill="#ffffff"
                d="M269.49,65c.61,0,1.11-.5,1.11-1.11s-.5-1.11-1.11-1.11-1.11.5-1.11,1.11.5,1.11,1.11,1.11Z" />
              <path
                fill="#ffffff"
                d="M299.73,42.78c.61,0,1.11-.5,1.11-1.11s-.5-1.11-1.11-1.11-1.11.5-1.11,1.11.5,1.11,1.11,1.11Z" />
              <path
                fill="#ffffff"
                d="M296.45,40.61c.61,0,1.11-.5,1.11-1.11s-.5-1.11-1.11-1.11-1.11.5-1.11,1.11.5,1.11,1.11,1.11Z" />
              <path
                fill="#ffffff"
                d="M293.48,38.44c.61,0,1.11-.5,1.11-1.11s-.5-1.11-1.11-1.11-1.11.5-1.11,1.11.5,1.11,1.11,1.11Z" />
              <path
                fill="#ffffff"
                d="M274.23,70.73c.61,0,1.11-.5,1.11-1.11s-.5-1.11-1.11-1.11-1.11.5-1.11,1.11.5,1.11,1.11,1.11Z" />
              <path
                fill="#ffffff"
                d="M318.78,12.93c.61,0,1.11-.5,1.11-1.11s-.5-1.11-1.11-1.11-1.11.5-1.11,1.11.5,1.11,1.11,1.11Z" />
              <path
                fill="#ffffff"
                d="M326.1,42.74c-.61,0-1.11.5-1.11,1.11s.5,1.11,1.11,1.11,1.11-.5,1.11-1.11-.5-1.11-1.11-1.11Z" />
              <circle fill="#ffffff" cx="314.56" cy="37.6" r="1.11" />
              <path
                fill="#ffffff"
                d="M293.68,46.1c0,.61.5,1.11,1.11,1.11s1.11-.5,1.11-1.11-.5-1.11-1.11-1.11-1.11.5-1.11,1.11Z" />
              <path
                fill="#ffffff"
                d="M381.97,227.25c-.61,0-1.11.5-1.11,1.11s.5,1.11,1.11,1.11,1.11-.5,1.11-1.11-.5-1.11-1.11-1.11Z" />
              <circle fill="#ffffff" cx="234.5" cy="201.1" r="1.11" />
              <path
                fill="#ffffff"
                d="M311.79,214.32c-.61,0-1.11.5-1.11,1.11s.5,1.11,1.11,1.11,1.11-.5,1.11-1.11-.5-1.11-1.11-1.11Z" />
              <path
                fill="#ffffff"
                d="M258.62,200.21c0-.61-.5-1.11-1.11-1.11s-1.11.5-1.11,1.11.5,1.11,1.11,1.11,1.11-.5,1.11-1.11Z" />
              <path
                fill="#ffffff"
                d="M268.23,215.91c0-.61-.5-1.11-1.11-1.11s-1.11.5-1.11,1.11.5,1.11,1.11,1.11,1.11-.5,1.11-1.11Z" />
              <path
                fill="#ffffff"
                d="M337.89,204.91c-.61,0-1.11.5-1.11,1.11s.5,1.11,1.11,1.11,1.11-.5,1.11-1.11-.5-1.11-1.11-1.11Z" />
              <path
                fill="#ffffff"
                d="M376.9,182.89c-.61,0-1.11.5-1.11,1.11s.5,1.11,1.11,1.11,1.11-.5,1.11-1.11-.5-1.11-1.11-1.11Z" />
              <path
                fill="#ffffff"
                d="M406.48,196.41c-.61,0-1.11.5-1.11,1.11s.5,1.11,1.11,1.11,1.11-.5,1.11-1.11-.5-1.11-1.11-1.11Z" />
              <path
                fill="#ffffff"
                d="M416.56,202.86c-.61,0-1.11.5-1.11,1.11s.5,1.11,1.11,1.11,1.11-.5,1.11-1.11-.5-1.11-1.11-1.11Z" />
              <path
                fill="#ffffff"
                d="M418.22,185.27c-.61,0-1.11.5-1.11,1.11s.5,1.11,1.11,1.11,1.11-.5,1.11-1.11-.5-1.11-1.11-1.11Z" />
              <path
                fill="#ffffff"
                d="M271.14,160.36c-.61,0-1.11.5-1.11,1.11s.5,1.11,1.11,1.11,1.11-.5,1.11-1.11-.5-1.11-1.11-1.11Z" />
              <circle fill="#ffffff" cx="271.56" cy="186.97" r="1.48" />
              <path
                fill="#ffffff"
                d="M281.94,205.75c0-.82-.66-1.48-1.48-1.48s-1.48.66-1.48,1.48.66,1.48,1.48,1.48,1.48-.66,1.48-1.48Z" />
              <circle fill="#ffffff" cx="387.01" cy="186.18" r="1.48" />
              <circle fill="#ffffff" cx="425.36" cy="184" r="1.48" />
              <path
                fill="#ffffff"
                d="M406.38,174.42c-.82,0-1.48.66-1.48,1.48s.66,1.48,1.48,1.48,1.48-.66,1.48-1.48-.66-1.48-1.48-1.48Z" />
              <circle fill="#ffffff" cx="387.01" cy="176.69" r="1.48" />
              <path
                fill="#ffffff"
                d="M345.15,26.73l.34,3.78.2-3.78c.68-.12,1.22-.64,1.35-1.31l3.69-.35-3.68-.21c-.12-.71-.69-1.27-1.4-1.36l-.35-3.67-.21,3.7c-.67.15-1.18.71-1.26,1.4l-3.77.34,3.8.2c.14.64.65,1.13,1.3,1.25Z" />
              <path
                fill="#ffffff"
                d="M282.93,67.77l.34,3.78.2-3.78c.68-.11,1.22-.64,1.35-1.31l3.69-.35-3.68-.21c-.11-.71-.69-1.27-1.4-1.36l-.35-3.67-.21,3.7c-.67.15-1.18.71-1.26,1.4l-3.77.34,3.8.2c.14.64.65,1.13,1.3,1.25Z" />
              <path
                fill="#ffffff"
                d="M422.66,174.43c-.11-.71-.69-1.27-1.4-1.36l-.35-3.67-.21,3.7c-.67.15-1.18.71-1.26,1.4l-3.77.34,3.8.2c.14.64.65,1.13,1.3,1.25l.34,3.78.2-3.78c.68-.11,1.22-.64,1.34-1.31l3.69-.35-3.68-.21Z" />
              <path
                fill="#ffffff"
                d="M270.97,229.81l-.35-3.67-.21,3.7c-.67.15-1.18.71-1.26,1.4l-3.77.34,3.8.2c.14.64.65,1.14,1.3,1.25l.34,3.78.2-3.78c.68-.11,1.22-.64,1.35-1.31l3.69-.35-3.68-.21c-.12-.71-.69-1.27-1.4-1.36Z" />
              <path
                fill="#ffffff"
                d="M409.55,202.14l-.35-3.67-.21,3.7c-.67.15-1.18.71-1.26,1.4l-3.77.34,3.8.2c.14.64.65,1.13,1.3,1.25l.34,3.78.2-3.78c.68-.11,1.22-.64,1.34-1.31l3.69-.35-3.68-.21c-.11-.71-.69-1.27-1.4-1.36Z" />
              <path
                fill="#e4002b"
                d="M426.45,66.38c-18.01,10.56-46.39,23.3-73.93,34.11l-2.64,1.03s-30.37,11.31-43.03,15.27c-25.71,8.05-96.07,29.85-138.57,57.33l3.56,1.38c25.9-14.63,42.73-19.22,58.91-24.31,17.59-5.54,74.47-18.85,100.22-26.09,8.7-2.45,18.89-5.65,29.69-9.55l3-1.09h0c21.53-7.96,45.08-18.6,63.8-31.46-8.98,8.51-38.66,30.69-56.76,43.06h0l-2.02,1.37s-6.84,4.52-9.03,5.79c-12.65,7.31-74.33,49.42-88.36,59.11-14.03,9.69-52.98,46.45-64.44,57.13l-.4,4.35c36.97-33.21,48.56-41.4,63.26-52.58,18.19-13.84,55.81-39.44,68.6-47.64,12.22-7.84,23.25-15.05,33.14-21.65l1.96-1.32h0s0,0,0,0l.42-.28h0c27.18-18.2,45.5-31.62,56.19-40.6,14.83-12.45,48.63-40.33,61.48-77.69-22.54,28.67-49.19,45.07-65.04,54.37Z" />
            </g>
            <path
              fill="#e4002b"
              d="M116.63,65.2c2.27-2.88.24-7.11-3.43-7.11h-.21s-113,0-113,0V4.93h153.88c19.11,0,34.6,15.49,34.6,34.6h0c0,8.5-3.1,16.72-8.78,23.03-41.02,45.52-76.52,115.44-78.95,197.02H35.32c3.16-87.46,49.49-153.78,81.27-194.32.01-.02.03-.04.04-.06Z" />
          </g>
        </svg>